<svg xmlns="http://www.w3.org/2000/svg" version="1.1" xmlns:xlink="http://www.w3.org/1999/xlink" xmlns:svgjs="http://svgjs.dev/svgjs" width="1500" height="583" viewBox="0 0 1500 583"><g transform="matrix(1,0,0,1,-0.9090909090911055,-0.14608602409526839)"><svg viewBox="0 0 396 154" data-background-color="#ffffff" preserveAspectRatio="xMidYMid meet" height="583" width="1500" xmlns="http://www.w3.org/2000/svg" xmlns:xlink="http://www.w3.org/1999/xlink"><g id="tight-bounds" transform="matrix(1,0,0,1,0.24000000000003752,0.03858876108176901)"><svg viewBox="0 0 395.5199999999999 153.92282247783646" height="153.92282247783646" width="395.5199999999999"><g><svg viewBox="0 0 395.5199999999999 153.92282247783646" height="153.92282247783646" width="395.5199999999999"><g transform="matrix(1,0,0,1,0,100.53582145102013)"><svg viewBox="0 0 395.5199999999999 53.387001026816336" height="53.387001026816336" width="395.5199999999999"><g id="textblocktransform"><svg viewBox="0 0 395.5199999999999 53.387001026816336" height="53.387001026816336" width="395.5199999999999" id="textblock"><g><svg viewBox="0 0 395.5199999999999 53.387001026816336" height="53.387001026816336" width="395.5199999999999"><g transform="matrix(1,0,0,1,0,0)"><svg width="395.5199999999999" viewBox="1.3701796310464618 -19.608469687499994 365.40548211139344 49.32160968749999" height="53.387001026816336" data-palette-color="#ffffff"><path d="M20.717-19.134v0c3.87 0.702 7.025 2.097 9.465 4.186 2.446 2.09 3.507 4.031 3.182 5.821v0c-0.089 0.492-0.27 0.889-0.541 1.193-0.272 0.303-0.575 0.499-0.91 0.587-0.341 0.087-0.689 0.099-1.043 0.034v0c-0.584-0.106-1.409-0.564-2.474-1.373-1.065-0.816-2.257-1.656-3.578-2.519-1.321-0.863-2.584-1.404-3.791-1.623v0c-1.915-0.347-3.015 0.263-3.3 1.831v0c-0.088 0.485-0.018 0.976 0.211 1.471 0.229 0.495 0.641 1.041 1.237 1.637 0.597 0.596 1.187 1.13 1.773 1.602 0.591 0.48 1.398 1.124 2.424 1.934 1.033 0.804 1.898 1.506 2.596 2.107v0c2.246 1.884 3.756 3.571 4.529 5.059 0.775 1.482 1.008 3.069 0.702 4.762v0c-1.222 6.737-6.372 9.282-15.45 7.636v0c-1.791-0.325-3.493-0.82-5.107-1.486-1.608-0.658-2.986-1.395-4.132-2.212-1.147-0.811-2.138-1.661-2.972-2.552-0.828-0.889-1.417-1.751-1.767-2.587-0.356-0.837-0.475-1.584-0.356-2.239v0c0.13-0.715 0.476-1.282 1.04-1.702 0.564-0.419 1.302-0.546 2.214-0.381v0c0.682 0.124 2.247 0.855 4.694 2.193 2.448 1.332 4.47 2.142 6.063 2.431v0c1.463 0.265 2.285-0.104 2.468-1.107v0c0.054-0.295 0.047-0.574-0.021-0.838-0.074-0.264-0.226-0.546-0.457-0.845-0.231-0.293-0.499-0.575-0.802-0.846-0.303-0.272-0.727-0.626-1.27-1.064-0.544-0.437-1.085-0.871-1.624-1.301-0.544-0.437-1.258-1.004-2.141-1.699-0.882-0.702-1.732-1.395-2.55-2.079v0c-1.077-0.9-1.956-1.933-2.64-3.1-0.676-1.166-1.121-2.28-1.335-3.342-0.207-1.061-0.234-2.014-0.08-2.86v0c0.496-2.735 2.121-4.744 4.873-6.028 2.753-1.283 6.376-1.517 10.87-0.701zM51.167 1.78v0c0.111-0.752-0.26-1.19-1.111-1.316v0c-0.627-0.092-1.234 0.169-1.823 0.783-0.596 0.613-1.098 1.415-1.506 2.407-0.416 0.997-0.706 2.049-0.868 3.157v0c-0.24 1.636 0.063 3.035 0.909 4.197 0.853 1.163 2.131 1.87 3.832 2.12v0c1.669 0.245 3.136 0.259 4.401 0.041v0c0.514-0.059 1.147-0.215 1.899-0.469 0.759-0.259 1.287-0.367 1.584-0.323v0c0.455 0.067 0.819 0.205 1.091 0.413 0.266 0.208 0.441 0.435 0.526 0.684 0.079 0.241 0.099 0.493 0.061 0.756v0c-0.067 0.455-0.304 0.99-0.711 1.604-0.406 0.607-0.988 1.223-1.747 1.846-0.765 0.622-1.625 1.173-2.578 1.652-0.96 0.479-2.105 0.819-3.435 1.022-1.338 0.208-2.709 0.208-4.114 0.001v0c-4.056-0.596-7.234-2.175-9.532-4.736-2.299-2.562-3.169-5.739-2.612-9.532v0c0.357-2.427 1.265-4.46 2.726-6.098 1.467-1.637 3.315-2.771 5.543-3.4 2.228-0.623 4.7-0.734 7.418-0.335v0c2.586 0.38 4.678 0.998 6.277 1.853 1.593 0.854 2.674 1.839 3.245 2.953 0.57 1.121 0.751 2.385 0.545 3.79v0c-0.092 0.627-0.308 1.248-0.648 1.865-0.34 0.617-0.812 1.215-1.416 1.793-0.605 0.585-1.429 1.01-2.472 1.275-1.043 0.264-2.217 0.301-3.523 0.108v0c-0.587-0.086-1.064-0.19-1.43-0.311-0.366-0.121-0.738-0.317-1.116-0.589-0.377-0.278-0.628-0.675-0.755-1.192-0.125-0.524-0.132-1.162-0.022-1.914v0c0.096-0.653 0.334-1.427 0.715-2.32 0.388-0.9 0.604-1.495 0.647-1.785zM79.669 19.916l0.996-9.116c0.215-1.874-0.399-2.894-1.843-3.06v0c-0.265-0.03-0.507-0.025-0.726 0.017-0.226 0.041-0.434 0.101-0.625 0.18-0.189 0.072-0.368 0.193-0.535 0.361-0.173 0.161-0.328 0.342-0.464 0.541-0.144 0.198-0.256 0.444-0.337 0.736-0.081 0.293-0.141 0.618-0.182 0.976v0l-0.623 5.424c-0.31 2.696-0.966 4.56-1.971 5.592-0.998 1.033-2.384 1.447-4.159 1.243v0c-1.841-0.211-3.13-0.883-3.865-2.014-0.736-1.131-0.953-3.012-0.651-5.641v0l2.312-21.013c0.233-2.033 0.898-3.47 1.995-4.311 1.096-0.84 2.466-1.166 4.108-0.977v0c1.742 0.2 3.015 0.712 3.82 1.535 0.805 0.824 1.08 2.338 0.827 4.544v0l-0.82 7.143c2.6-1.198 5.639-1.597 9.116-1.198v0c1.583 0.182 2.802 0.728 3.657 1.638 0.861 0.918 1.423 2.274 1.687 4.069 0.257 1.794 0.223 4.102-0.1 6.924v0c-0.167 1.45-0.333 2.696-0.5 3.737-0.174 1.047-0.361 2.002-0.561 2.865-0.192 0.857-0.42 1.552-0.682 2.086-0.263 0.54-0.55 0.99-0.86 1.351-0.304 0.368-0.673 0.634-1.108 0.799-0.435 0.165-0.907 0.268-1.415 0.31-0.502 0.043-1.097 0.025-1.785-0.054v0c-1.841-0.211-3.127-0.701-3.858-1.47-0.725-0.761-1.007-1.834-0.848-3.217zM111.797 15.228v0c0.139-1.714 0.049-3.24-0.27-4.577-0.327-1.331-0.902-2.03-1.725-2.097v0c-0.558-0.045-1.077 0.244-1.556 0.867-0.485 0.623-0.867 1.404-1.144 2.345-0.271 0.941-0.45 1.953-0.538 3.037v0c-0.137 1.681-0.027 3.175 0.328 4.481 0.362 1.307 0.968 1.995 1.819 2.064 0.857 0.07 1.553-0.502 2.086-1.716 0.527-1.221 0.861-2.689 1-4.404zM108.244 27.089v0c-2.565-0.209-4.84-0.858-6.824-1.949-1.985-1.091-3.523-2.611-4.616-4.56-1.086-1.948-1.528-4.158-1.327-6.629v0c0.305-3.754 1.834-6.633 4.585-8.637 2.751-1.997 6.136-2.832 10.157-2.505 4.027 0.328 7.219 1.698 9.578 4.11 2.358 2.419 3.385 5.506 3.08 9.26v0c-0.303 3.728-1.837 6.556-4.603 8.485-2.759 1.936-6.103 2.744-10.03 2.425zM143.039 17.102v0c0.083-1.718-0.057-3.24-0.42-4.566-0.37-1.319-0.968-1.999-1.794-2.039v0c-0.559-0.027-1.068 0.279-1.526 0.918-0.465 0.638-0.82 1.432-1.066 2.381-0.239 0.95-0.385 1.967-0.438 3.053v0c-0.081 1.685 0.077 3.174 0.476 4.468 0.405 1.294 1.033 1.962 1.885 2.003 0.859 0.041 1.535-0.553 2.029-1.784 0.487-1.238 0.772-2.716 0.854-4.434zM139.879 29.073v0c-2.57-0.124-4.865-0.699-6.885-1.724-2.02-1.025-3.607-2.493-4.764-4.404-1.149-1.911-1.664-4.105-1.544-6.583v0c0.182-3.762 1.614-6.69 4.298-8.783 2.684-2.086 6.04-3.032 10.069-2.838 4.035 0.195 7.271 1.459 9.708 3.793 2.437 2.34 3.564 5.391 3.383 9.154v0c-0.18 3.736-1.621 6.613-4.321 8.631-2.694 2.026-6.009 2.944-9.944 2.754zM169.625 1.277l-0.503 20.974c-0.064 2.679-0.557 4.585-1.478 5.716-0.921 1.138-2.308 1.685-4.161 1.641v0c-1.853-0.044-3.197-0.597-4.031-1.657-0.835-1.067-1.22-2.92-1.157-5.56v0l0.403-20.936c0.021-0.86 0.129-1.617 0.324-2.273 0.202-0.655 0.466-1.212 0.791-1.671 0.324-0.452 0.72-0.823 1.187-1.112 0.474-0.282 0.985-0.483 1.535-0.604 0.55-0.12 1.138-0.173 1.764-0.157v0c1.819 0.044 3.174 0.44 4.063 1.188 0.896 0.748 1.317 2.232 1.263 4.451zM207.526 29.534l-12.948 0.179c-1.52-0.012-2.747-0.235-3.68-0.669-0.933-0.434-1.636-1.161-2.11-2.181-0.474-1.014-0.723-2.38-0.747-4.1v0l-0.29-20.988c-0.024-1.753 0.466-3.19 1.47-4.311 1.011-1.121 2.36-1.693 4.047-1.716v0c1.986-0.027 3.455 0.316 4.404 1.029 0.95 0.714 1.44 2.18 1.471 4.4v0l0.275 19.888 8.49-0.117c1.913-0.026 3.264 0.235 4.051 0.784 0.788 0.549 1.194 1.7 1.218 3.453v0c0.025 1.786-0.406 2.953-1.292 3.499-0.886 0.539-2.339 0.822-4.359 0.85zM216.465-1.279v0c-0.041-1.086 0.397-2.003 1.316-2.752 0.912-0.749 2.228-1.156 3.947-1.221v0c3.604-0.137 5.454 1.05 5.549 3.561v0c0.053 1.392-0.366 2.386-1.257 2.98-0.885 0.594-2.22 0.925-4.005 0.994v0c-1.552 0.059-2.853-0.188-3.901-0.743-1.048-0.554-1.598-1.494-1.649-2.819zM227.697 10.652l0.491 12.891c0.076 1.985-0.285 3.38-1.082 4.184-0.796 0.811-2.237 1.256-4.322 1.336v0c-1.945 0.074-3.292-0.328-4.039-1.208-0.748-0.886-1.161-2.368-1.24-4.446v0l-0.464-12.201c-0.064-1.685 0.341-3.055 1.214-4.109 0.867-1.06 2.06-1.62 3.579-1.677v0c1.785-0.068 3.189 0.266 4.211 1 1.022 0.742 1.573 2.152 1.652 4.23zM242.344-0.475l0.424 6.776c2.081-1.753 4.393-2.71 6.935-2.868v0c2.575-0.161 4.789 0.796 6.642 2.871 1.853 2.068 2.883 4.769 3.092 8.102v0c0.252 4.025-0.856 7.251-3.323 9.677-2.467 2.425-5.779 3.768-9.938 4.028v0c-2.542 0.159-4.783-0.065-6.725-0.671-1.949-0.613-3.504-1.611-4.666-2.995-1.162-1.383-1.824-3.099-1.985-5.146v0l-1.267-18.657c-0.128-2.043 0.274-3.574 1.205-4.595 0.931-1.02 2.222-1.582 3.873-1.685v0c1.85-0.116 3.238 0.235 4.163 1.052 0.927 0.824 1.45 2.194 1.57 4.111zM243.695 20.311v0c0.669 1.087 1.529 1.598 2.58 1.532v0c0.892-0.056 1.552-0.662 1.981-1.818 0.422-1.155 0.588-2.458 0.497-3.908v0c-0.05-0.792-0.165-1.563-0.345-2.313-0.174-0.751-0.396-1.425-0.668-2.022-0.271-0.598-0.598-1.075-0.981-1.432-0.39-0.356-0.817-0.52-1.283-0.491v0c-1.018 0.064-1.788 0.726-2.311 1.988v0c0.027 0.426 0.103 1.653 0.231 3.683 0.127 2.029 0.227 3.623 0.299 4.781zM273.878 10.267l0.917 9.927c0.183 1.978-0.102 3.39-0.855 4.237-0.751 0.853-2.183 1.376-4.294 1.571v0c-1.938 0.179-3.298-0.151-4.078-0.99-0.774-0.846-1.257-2.304-1.448-4.375v0l-1.122-12.158c-0.103-1.115 0.006-2.113 0.327-2.993 0.314-0.873 0.829-1.576 1.542-2.111 0.715-0.528 1.583-0.839 2.605-0.933v0c2.503-0.231 4.216 0.341 5.14 1.715v0c1.778-1.624 3.557-2.518 5.336-2.682v0c3.459-0.319 5.34 1.168 5.644 4.461v0c0.121 1.314-0.158 2.418-0.84 3.311-0.681 0.893-1.632 1.396-2.853 1.508v0c-0.724 0.067-1.321-0.025-1.793-0.276-0.472-0.258-0.911-0.518-1.318-0.782-0.405-0.257-0.857-0.363-1.354-0.317v0c-0.724 0.067-1.242 0.362-1.556 0.887zM296.64 23.477v0c-2.595 0.311-4.873-0.491-6.834-2.404-1.961-1.914-3.162-4.711-3.603-8.391v0c-0.448-3.74 0.043-6.82 1.472-9.241 1.422-2.42 3.448-3.787 6.075-4.101v0c2.661-0.319 5.236 0.323 7.724 1.925v0c0.69-1.748 2.022-2.74 3.995-2.976v0c1.774-0.212 3.197 0.007 4.268 0.658 1.079 0.656 1.742 2.017 1.989 4.082v0l1.534 12.809c0.236 1.973-0.01 3.392-0.739 4.258-0.728 0.873-2.125 1.433-4.19 1.68v0c-2.171 0.26-3.674-0.178-4.508-1.314v0c-1.929 1.668-4.323 2.673-7.183 3.015zM302.458 15.288l-1.103-9.214c-0.677-0.886-1.459-1.276-2.346-1.17v0c-0.847 0.101-1.461 0.809-1.84 2.124-0.374 1.307-0.465 2.765-0.272 4.373v0c0.181 1.509 0.587 2.827 1.218 3.953 0.638 1.125 1.401 1.635 2.288 1.529v0c0.913-0.109 1.598-0.641 2.055-1.595zM327.137 3.678l1.477 9.86c0.294 1.965 0.09 3.391-0.613 4.278-0.702 0.894-2.101 1.498-4.198 1.812v0c-1.925 0.288-3.301 0.036-4.127-0.757-0.821-0.801-1.386-2.229-1.694-4.286v0l-1.809-12.076c-0.166-1.108-0.114-2.11 0.156-3.006 0.265-0.889 0.738-1.621 1.421-2.195 0.683-0.568 1.533-0.927 2.548-1.079v0c2.486-0.372 4.228 0.101 5.228 1.421v0c1.683-1.722 3.409-2.715 5.176-2.98v0c3.435-0.515 5.397 0.863 5.887 4.134v0c0.196 1.305-0.021 2.423-0.65 3.353-0.629 0.93-1.55 1.486-2.764 1.668v0c-0.719 0.108-1.321 0.05-1.805-0.174-0.486-0.231-0.939-0.466-1.36-0.707-0.419-0.234-0.876-0.314-1.371-0.239v0c-0.719 0.108-1.219 0.432-1.502 0.973zM365.16-1.518v0c0.99 5.566 1.518 9.487 1.584 11.765v0c0.09 2.029-0.012 3.818-0.305 5.366-0.293 1.549-0.846 2.974-1.657 4.276-0.811 1.302-1.949 2.368-3.413 3.197-1.463 0.836-3.268 1.444-5.414 1.826v0c-1.726 0.307-3.376 0.34-4.95 0.098-1.573-0.242-2.855-0.654-3.845-1.236-0.996-0.575-1.8-1.176-2.414-1.805-0.614-0.636-0.967-1.213-1.059-1.731-0.092-0.519-0.007-1.028 0.256-1.529 0.263-0.5 0.687-0.803 1.271-0.906v0c0.427-0.076 0.945-0.036 1.555 0.119 0.618 0.161 1.218 0.359 1.802 0.594 0.576 0.229 1.245 0.412 2.007 0.547 0.762 0.135 1.485 0.142 2.167 0.021v0c1.759-0.313 2.928-0.974 3.507-1.985 0.572-1.009 0.714-2.328 0.424-3.955v0c-0.51 0.328-1.011 0.617-1.502 0.866-0.496 0.257-0.978 0.479-1.446 0.664-0.468 0.185-0.919 0.333-1.353 0.444-0.434 0.111-0.864 0.204-1.291 0.28v0c-1.923 0.342-3.663 0.096-5.22-0.738-1.557-0.834-2.777-1.984-3.661-3.452-0.885-1.474-1.49-3.124-1.814-4.949v0c-0.323-1.818-0.572-3.369-0.746-4.651-0.179-1.275-0.276-2.426-0.289-3.453-0.012-1.02 0.035-1.841 0.141-2.463 0.106-0.622 0.323-1.154 0.65-1.598 0.321-0.443 0.716-0.774 1.185-0.993 0.462-0.218 1.035-0.387 1.717-0.508v0c2.054-0.365 3.557-0.274 4.508 0.275 0.958 0.554 1.571 1.579 1.837 3.076v0l1.448 7.857c0.092 0.519 0.16 0.903 0.205 1.152 0.043 0.243 0.119 0.537 0.228 0.884 0.117 0.352 0.229 0.603 0.337 0.753 0.107 0.144 0.252 0.294 0.436 0.45 0.176 0.152 0.391 0.239 0.645 0.261 0.255 0.022 0.562 0.002 0.924-0.062v0c0.978-0.174 1.541-0.552 1.687-1.133 0.147-0.581 0.094-1.588-0.16-3.019v0l-1.359-7.924c-0.179-1.004-0.153-1.848 0.078-2.533 0.232-0.678 0.725-1.253 1.481-1.726 0.757-0.466 1.837-0.824 3.242-1.074v0c0.847-0.151 1.593-0.141 2.239 0.028 0.653 0.168 1.199 0.44 1.638 0.816 0.433 0.377 0.818 0.982 1.156 1.816 0.33 0.828 0.606 1.676 0.828 2.544 0.222 0.868 0.46 2.017 0.715 3.448z" opacity="1" transform="matrix(1,0,0,1,0,0)" fill="#ffffff" class="wordmark-text-0" data-fill-palette-color="primary" id="text-0"></path></svg></g></svg></g></svg></g></svg></g><g transform="matrix(1,0,0,1,163.80312081086785,0)"><svg viewBox="0 0 67.91375837826422 96.63047185853758" height="96.63047185853758" width="67.91375837826422"><g><svg xmlns="http://www.w3.org/2000/svg" xmlns:xlink="http://www.w3.org/1999/xlink" version="1.1" x="0" y="0" viewBox="0 0 58.333999999999996 83" enable-background="new 0 0 58.334 83.332" xml:space="preserve" width="67.91375837826422" height="96.63047185853758" class="icon-icon-0" data-fill-palette-color="accent" id="icon-0"><polygon points="52.778,77.777 5.556,77.777 0,83.332 58.334,83.332 " fill="#ffffff" data-fill-palette-color="accent"></polygon><path d="M57.179 31.088l0.002-0.006-0.041-0.027c-0.023-0.016-0.049-0.031-0.072-0.047L30.556 16.062v-4.378c4.895 2.449 8.926-1.771 15.278 0.768V2.778C39.479 0.239 35.449 4.459 30.556 2.01V1.389C30.556 0.621 29.935 0 29.167 0c-0.768 0-1.389 0.621-1.389 1.389v14.673L1.268 31.008c-0.024 0.016-0.049 0.031-0.073 0.047l-0.04 0.027 0.002 0.006C0.459 31.592 0 32.406 0 33.334c0 1.533 1.244 2.777 2.778 2.777h5.556v4.166l0 0V75h8.333V55.277H25V75h8.334V55.277h8.333V75H50V40.277l0 0v-4.166h5.556c1.534 0 2.778-1.244 2.778-2.777C58.334 32.406 57.875 31.592 57.179 31.088zM42.292 46.018c-3.18 0.154-9.427 0.768-13.125 3.186-3.698-2.419-9.942-3.031-13.125-3.186V31.022c4.126 0.221 9.799 1.146 11.797 3.145 0.733 0.733 1.921 0.733 2.652 0 1.999-1.999 7.671-2.923 11.799-3.145L42.292 46.018 42.292 46.018z" fill="#ffffff" data-fill-palette-color="accent"></path></svg></g></svg></g><g></g></svg></g><defs></defs></svg><rect width="395.5199999999999" height="153.92282247783646" fill="none" stroke="none" visibility="hidden"></rect></g></svg></g></svg>