<?xml version="1.0" encoding="utf-8"?>
<!-- Generator: Adobe Illustrator 28.0.0, SVG Export Plug-In . SVG Version: 6.00 Build 0)  -->
<svg version="1.1" id="Layer_1" xmlns="http://www.w3.org/2000/svg" xmlns:xlink="http://www.w3.org/1999/xlink" x="0px" y="0px"
	 viewBox="0 0 100 100" style="enable-background:new 0 0 100 100;" xml:space="preserve">
<style type="text/css">
	.st0{fill:none;stroke:#006838;stroke-width:1;stroke-miterlimit:10.0004;}
	.st1{fill:none;stroke:#006838;stroke-miterlimit:10;}
	.st2{fill:none;stroke:#006838;stroke-width:1;stroke-miterlimit:9.9996;}
	.st3{fill:#00AEEF;stroke:#006838;stroke-miterlimit:10;}
	.st4{fill:#006838;}
	.st5{fill:#006838;stroke:#006838;stroke-miterlimit:10;}
</style>
<g id="Layer_1_00000090270553493112652550000016006274098875055260_">
	
		<rect x="46.2" y="29" transform="matrix(5.549771e-02 -0.9985 0.9985 5.549771e-02 13.11 80.6448)" class="st0" width="5.9" height="8.8"/>
	<path class="st1" d="M53.4,46.5l-9.6-0.4c-0.3-0.5-0.6-1.2-0.8-1.9c-1.1-3.7,0.6-7.1,1.2-8.3c3.2,0.1,6.4,0.3,9.6,0.4
		c0.5,1.5,1.3,4.3,0.5,7.6C54,45,53.7,45.8,53.4,46.5z"/>
	<path class="st1" d="M51,47.4l-4.9-0.2c-0.2-0.4-0.3-0.8-0.4-1.4c-0.5-2.7,0.4-5.2,0.7-6.1c1.6,0.1,3.2,0.1,4.9,0.2
		c0.2,1.1,0.6,3.2,0.2,5.6C51.4,46.3,51.2,46.9,51,47.4z"/>
	<rect x="27.2" y="30.5" transform="matrix(0.9363 -0.3511 0.3511 0.9363 -14.2442 14.4663)" class="st2" width="11" height="32"/>
	<polygon class="st1" points="67.2,63.6 55.5,60.7 63.2,27.5 74.9,30.4 	"/>
	<path class="st3" d="M28.4,64.9c2,0,4.1-0.1,6.1,0.2c0,0,0,0,0,0l0,0c0.1,0,0.3,0,0.4,0.1c0.1,0,0.2,0.1,0.3,0.1
		c1.9-0.2,3.9,0.1,5.9,0.2c1.4,0,2.7-0.1,4.1,0c0.4,0,0.8,0,1.1,0.1c2.2,0,4.5-0.1,6.7,0.1c3.2,0.2,6.3,0.1,9.5,0.3
		c0.9,0.1,1.8,0.1,2.6,0.2c1.7,0,3.3,0,5,0.1c0.4-0.9,0.7-1.9,2.1-2c-1-11.7-11.2-20.9-23.7-20.9c-12.7,0-23.1,9.5-23.7,21.5
		c0.3,0,0.6,0,0.9,0C26.7,64.8,27.6,64.7,28.4,64.9z"/>
	<polygon class="st1" points="23.9,23.3 21.6,33.5 33,29.4 	"/>
	<line class="st1" x1="25.9" y1="42.7" x2="35.8" y2="38.8"/>
	<circle class="st1" cx="29" cy="36.5" r="2.2"/>
	<path class="st1" d="M45.7,30l2.4-7.8c-0.4-0.3-0.6-0.8-0.6-1.4c0-1,0.7-1.8,1.6-1.9l0.2-0.8l0.2,0.9c0.7,0.2,1.2,0.9,1.2,1.8
		c0,0.5-0.2,0.9-0.4,1.2l2.4,8.5L45.7,30z"/>
	<line class="st1" x1="60" y1="41" x2="71.5" y2="43.9"/>
	<line class="st1" x1="61.4" y1="35.2" x2="73.1" y2="38.2"/>
	<polygon class="st1" points="73.4,30.1 64.9,28 66.2,22.6 74.6,24.7 	"/>
	<line class="st1" x1="68.7" y1="23.5" x2="67.5" y2="28.7"/>
	<line class="st1" x1="72.1" y1="24.6" x2="71" y2="29.5"/>
	<g>
		<path class="st4" d="M18.8,65.6c-0.5,0.6-1,1.2-1.2,1.8s-0.6,1.6-1,2.9l-1,3.7l0.1,0.5l0.7,0.6h-2.7l0.8-0.6l-1-3.8l-1,3.7l1,1.2
			h-3l-0.1-0.2h2.8l-0.9-1l1.1-4l-0.2-0.7L12,74.1l0.1,0.4l0.7,0.6h-2.7l0.8-0.6l-1.7-6.1l-0.9-0.7h2.9l-0.8,0.7l1.3,4.8l0.2-0.7
			l-1.1-4l0.5-0.5l0.1,0.1l-0.5,0.4l1,3.7l1.2-4.6h0.6l1.5,5.5l0.2-0.7l-1.4-4.9h0.2l1.3,4.6l0.6-2c0.3-1.2,0.5-2.1,0.5-2.4
			c0-0.4-0.2-0.8-0.6-1c0.5-0.1,1-0.3,1.5-0.6s0.9-0.5,1.2-0.7L18.8,65.6z M19.1,66.1c-0.5,0.5-0.9,1.1-1.2,1.8s-0.6,1.6-0.9,2.7
			l-1,3.8l1.1,1.3h-3L14,75.5h2.8l-0.9-1.1l1.1-3.9c0.3-1.2,0.6-2.1,0.9-2.7s0.7-1.2,1.2-1.8L19.1,66.1z"/>
		<path class="st4" d="M21.6,67.5c1,0,1.7,0.4,2.3,1.1s0.9,1.7,0.9,2.9c0,1.1-0.3,2-0.8,2.7s-1.3,1-2.3,1c-0.8,0-1.4-0.2-2-0.7
			c-0.9-0.7-1.3-1.7-1.3-3.1c0-1.2,0.3-2.1,0.9-2.8S20.6,67.5,21.6,67.5z M21.6,68.1c-1.3,0-2,1.2-2,3.5c0,2.1,0.6,3.2,2,3.2
			c0.6,0,1.1-0.3,1.4-0.8s0.5-1.4,0.5-2.5c0-1.2-0.1-2.1-0.5-2.6C22.7,68.3,22.2,68.1,21.6,68.1z M23.5,67.8c0.6,0.3,1,0.7,1.3,1.4
			s0.5,1.4,0.5,2.3c0,1.3-0.3,2.3-1,3.1s-1.5,1.2-2.5,1.2c-0.7,0-1.3-0.2-1.9-0.7v0c0.5,0.4,1.1,0.5,1.8,0.5c1,0,1.8-0.4,2.4-1.1
			s0.9-1.7,0.9-2.8c0-0.9-0.1-1.6-0.4-2.2S24,68.2,23.5,67.8L23.5,67.8L23.5,67.8z M22.9,68.9l-0.1-0.1c-0.4-0.2-0.7-0.3-1-0.3
			c-1,0-1.5,1-1.5,3c0,1.5,0.3,2.5,1,2.9l0,0.1c-0.4-0.3-0.7-0.6-0.8-1.1S20,72.4,20,71.7c0-2.2,0.6-3.2,1.7-3.2
			C22.3,68.4,22.6,68.6,22.9,68.9z"/>
		<path class="st4" d="M26.1,68.3c0.9-0.5,1.9-0.8,3-0.8c0.8,0,1.5,0.2,2,0.5s0.8,0.8,0.8,1.4c0,0.4-0.2,0.8-0.5,1.2
			s-0.8,0.6-1.4,0.8c0.3,0.7,0.6,1.5,1.1,2.2s0.9,1.2,1.4,1.6l-0.1,0c-0.6,0.2-1.1,0.5-1.7,0.8l-0.1,0.1l0-0.2
			c-0.2-1.5-0.6-2.8-1-3.8l0-0.1c-0.3,0.1-0.6,0.2-1.1,0.3l0,0v2.2l1,1.1h-3l-0.1-0.2h2.8l-0.9-0.9v-2.4l0.1,0
			c0.5-0.1,0.8-0.1,1.1-0.3c0-0.1,0-0.1,0-0.1l-0.1-0.2c0,0,0,0,0-0.1c-0.2,0.1-0.7,0.2-1.4,0.2l-0.1,0v2.6l0.7,0.7H26l0.8-0.7v-2
			l0,0c-0.2,0.1-0.4,0.1-0.6,0.2l0,0l0-0.1c0.2-0.1,0.3-0.1,0.4-0.1l0.3-0.1l0,0V72c-0.2,0-0.5,0.1-0.9,0.2l-0.1,0
			c0-0.1,0-0.2,0.1-0.4c0,0,0-0.1,0.1-0.3c0,0,0,0,0-0.1c0.2,0,0.3,0,0.4,0c0.1,0,0.2,0,0.3,0v-2.9C26.5,68.5,26.4,68.4,26.1,68.3
			L26.1,68.3z M27.9,68.2v3.2c0.1,0,0.2,0,0.3,0v-2.9c0.2-0.1,0.5-0.1,0.8-0.1c0.8,0,1.3,0.2,1.5,0.8c-0.3-0.2-0.5-0.4-0.8-0.5
			s-0.5-0.1-0.8-0.1c-0.2,0-0.5,0-0.6,0.1v2.8l0.1,0c0.8-0.1,1.3-0.4,1.7-0.7s0.6-0.7,0.6-1.2c0-0.4-0.2-0.8-0.5-1.1
			S29.4,68,28.9,68C28.5,67.9,28.2,68,27.9,68.2z M30.7,71.7c0.2,0.8,0.7,1.6,1.3,2.4c0.4,0.5,0.9,0.9,1.5,1.3
			c-0.9,0.2-1.7,0.6-2.5,1.1l0,0l-0.1-0.1c0.8-0.5,1.5-0.8,2.4-1.1c-1.1-0.8-2-1.9-2.6-3.6l0-0.1c1.2-0.4,1.8-1.1,1.8-2.1
			c0-0.4-0.2-0.8-0.5-1.2c0.4,0.4,0.6,0.8,0.6,1.4C32.4,70.5,31.9,71.2,30.7,71.7z"/>
		<path class="st4" d="M33.5,67.6h2.8l-0.8,0.8v6.3h0l0.2,0h0v-6.2l0.6-0.6l0.1,0.1l-0.6,0.6v6.2c0.2,0,0.3,0,0.5,0
			c0.6,0,1.1-0.1,1.4-0.4s0.5-0.7,0.6-1.4c0.4,1.1,0.7,1.8,1.1,2.2h-6.1l0.8-0.7v-6.1L33.5,67.6z M40.2,75.1l-0.3,0.5h-6.1l-0.2-0.2
			h6.2l0.2-0.4c-0.4-0.5-0.8-1.1-1-1.8l0-0.1l0.2,0.1l0,0.1C39.4,74,39.8,74.5,40.2,75.1L40.2,75.1z"/>
		<path class="st4" d="M40.2,67.6h2.3c1.1,0,2,0.2,2.5,0.7c0.8,0.6,1.2,1.6,1.2,3c0,1.4-0.3,2.4-1.1,3.1c-0.3,0.3-0.7,0.5-1.1,0.6
			s-0.9,0.2-1.6,0.2H40l0.8-0.6v-6.2L40.2,67.6z M40.4,75.6l-0.1-0.2h2.1c1,0,1.9-0.2,2.4-0.4c1.2-0.6,1.8-1.8,1.8-3.6
			c0-1.2-0.3-2.1-0.8-2.7l-0.2-0.3c0,0,0,0-0.1-0.1c0.8,0.5,1.2,1.5,1.2,3c0,1.5-0.4,2.7-1.2,3.4c-0.6,0.6-1.7,0.8-3.1,0.8
			L40.4,75.6L40.4,75.6z M42,68.1v6.6h0.3v-6.2c0.2,0,0.4-0.1,0.6-0.1c0.3,0,0.6,0,0.8,0.1s0.4,0.2,0.6,0.3
			c-0.4-0.2-0.9-0.3-1.3-0.3c-0.1,0-0.2,0-0.4,0v6.1c0.4,0,0.8,0,1-0.1s0.4-0.2,0.6-0.4c0.6-0.6,0.8-1.5,0.8-2.9
			c0-1.3-0.3-2.2-0.9-2.7c-0.4-0.3-1-0.4-1.8-0.4C42.3,68.1,42,68.1,42,68.1z"/>
		<path class="st4" d="M57.5,67.6l-1.3,0.8l-1.9,2.4l2.1,3.5l1,0.8h-3l0.7-0.7l-1.3-2.2l-1.7,2.1l1,1.2H50l-0.1-0.2h3L52,74.4
			l1.8-2.3l-0.2-0.3l-1.9,2.4l0.7,0.9h-2.7l1.4-0.9l2.3-2.9l-1.8-3l-1.1-0.8h3.1l-0.8,0.7l1.3,2.1l0.2-0.3l-1.1-1.8l0.7-0.6l0.1,0.1
			l-0.6,0.5l1,1.6l1.3-1.6l-0.7-0.8L57.5,67.6L57.5,67.6z M57.7,68.1l-1.1,0.7l-1.7,2.2l2,3.3l1.4,1.4h-3.6l-0.1-0.2H58l-1.2-1.2
			l-2.1-3.4l1.7-2.2l1.2-0.7L57.7,68.1z"/>
		<path class="st4" d="M59,67.6h2.6c1.1,0,1.9,0.2,2.4,0.5c0.6,0.4,0.9,0.9,0.9,1.6c0,0.4-0.1,0.8-0.3,1.1s-0.5,0.5-1,0.7
			s-1.1,0.2-2,0.2h-0.7v2.8l0.7,0.6h-2.7l0.8-0.7v-2.3c0,0-0.1,0-0.1,0c-0.3,0-0.5,0.1-0.8,0.2l0-0.1c0.3-0.2,0.5-0.2,0.7-0.2h0.2
			l0,0v-0.3c-0.1,0-0.2,0-0.2,0c-0.4,0-0.8,0.1-1,0.3l-0.1-0.1c0.2-0.4,0.6-0.7,1.2-0.7h0.1v-2.9L59,67.6z M64.6,68.2
			c0.2,0.1,0.4,0.3,0.6,0.6s0.2,0.6,0.2,1c0,0.8-0.3,1.5-1,1.8c-0.5,0.3-1.3,0.4-2.5,0.4c-0.2,0-0.4,0-0.5,0v2.4l0.9,1.1h-2.9
			l-0.2-0.2h2.8l-0.8-0.9v-2.6c0.3,0,0.7,0,1.1,0c1,0,1.8-0.2,2.2-0.5s0.7-0.9,0.7-1.6c0-0.3-0.1-0.6-0.1-0.8S64.8,68.5,64.6,68.2z
			 M60.9,68.2v2.9H61l0.2,0c0,0,0,0,0.1,0v-2.6h0.6c0.5,0,0.8,0,1.1,0.1s0.4,0.3,0.5,0.6c-0.1-0.2-0.3-0.3-0.5-0.4s-0.5-0.1-0.9-0.1
			h-0.6v2.5c0.8,0,1.3-0.1,1.7-0.3s0.5-0.6,0.5-1.1c0-0.5-0.2-0.9-0.5-1.2s-0.8-0.4-1.6-0.4C61.4,68.2,61.2,68.2,60.9,68.2z"/>
		<path class="st4" d="M65.8,67.6h2.8l-0.8,0.8v6.3h0.1l0.2,0H68v-6.2l0.6-0.6l0.1,0.1l-0.6,0.6v6.2c0.2,0,0.3,0,0.5,0
			c0.6,0,1.1-0.1,1.4-0.4s0.5-0.7,0.6-1.4c0.4,1.1,0.7,1.8,1.1,2.2h-6.1l0.8-0.7v-6.1L65.8,67.6z M72.4,75.1l-0.3,0.5h-6.1l-0.2-0.2
			h6.2l0.2-0.4c-0.4-0.5-0.8-1.1-1-1.8l0-0.1l0.2,0.1l0,0.1C71.7,74,72,74.5,72.4,75.1L72.4,75.1z"/>
		<path class="st4" d="M75.6,67.5c0.9,0,1.7,0.4,2.3,1.1s0.8,1.7,0.8,2.9c0,1.1-0.3,2-0.8,2.7s-1.3,1-2.3,1c-0.8,0-1.4-0.2-2-0.7
			c-0.9-0.7-1.3-1.7-1.3-3.1c0-1.2,0.3-2.1,0.9-2.8S74.6,67.5,75.6,67.5z M75.6,68.1c-1.3,0-2,1.2-2,3.5c0,2.1,0.7,3.2,1.9,3.2
			c0.6,0,1.1-0.3,1.4-0.8s0.5-1.4,0.5-2.5c0-1.2-0.2-2.1-0.5-2.6C76.7,68.3,76.2,68.1,75.6,68.1z M77.5,67.8c0.6,0.3,1,0.7,1.3,1.4
			s0.5,1.4,0.5,2.3c0,1.3-0.3,2.3-1,3.1s-1.5,1.2-2.5,1.2c-0.7,0-1.3-0.2-1.9-0.7v0c0.5,0.4,1.1,0.5,1.8,0.5c1,0,1.8-0.4,2.4-1.1
			s0.9-1.7,0.9-2.8c0-0.9-0.1-1.6-0.4-2.2S78,68.2,77.5,67.8L77.5,67.8L77.5,67.8z M76.9,68.9L76.9,68.9c-0.5-0.3-0.8-0.4-1.1-0.4
			c-1,0-1.5,1-1.5,3c0,1.5,0.3,2.5,1,2.9l-0.1,0.1c-0.4-0.3-0.7-0.6-0.8-1.1S74,72.4,74,71.7c0-2.2,0.6-3.2,1.7-3.2
			C76.2,68.4,76.6,68.6,76.9,68.9z"/>
		<path class="st4" d="M80.1,68.3c0.9-0.5,1.9-0.8,3-0.8c0.8,0,1.5,0.2,2.1,0.5s0.8,0.8,0.8,1.4c0,0.4-0.2,0.8-0.5,1.2
			s-0.8,0.6-1.4,0.8c0.3,0.7,0.6,1.5,1.1,2.2s0.9,1.2,1.4,1.6l-0.1,0c-0.6,0.2-1.2,0.5-1.7,0.8l-0.1,0.1l0-0.2
			c-0.2-1.5-0.6-2.8-1.1-3.8l0-0.1c-0.3,0.1-0.6,0.2-1.1,0.3l-0.1,0v2.2l1,1.1h-3l-0.1-0.2H83l-0.8-0.9v-2.4l0.1,0
			c0.4-0.1,0.8-0.1,1.1-0.3c0-0.1,0-0.1,0-0.1l-0.1-0.2c0,0,0,0,0-0.1c-0.2,0.1-0.7,0.2-1.4,0.2l-0.1,0v2.6l0.7,0.7h-2.6l0.8-0.7v-2
			l-0.1,0c-0.2,0.1-0.4,0.1-0.6,0.2l-0.1,0l-0.1-0.1c0.2-0.1,0.3-0.1,0.4-0.1l0.3-0.1l0.1,0V72c-0.2,0-0.5,0.1-0.9,0.2l-0.1,0
			c0-0.1,0.1-0.2,0.1-0.4c0,0,0-0.1,0.1-0.3c0,0,0,0,0-0.1c0.2,0,0.3,0,0.4,0c0.1,0,0.2,0,0.3,0v-2.9C80.5,68.5,80.3,68.4,80.1,68.3
			L80.1,68.3z M81.8,68.2v3.2c0.1,0,0.2,0,0.3,0v-2.9c0.2-0.1,0.5-0.1,0.8-0.1c0.8,0,1.3,0.2,1.6,0.8c-0.3-0.2-0.5-0.4-0.8-0.5
			s-0.5-0.1-0.8-0.1c-0.2,0-0.4,0-0.6,0.1v2.8l0.1,0c0.8-0.1,1.3-0.4,1.7-0.7s0.6-0.7,0.6-1.2c0-0.4-0.2-0.8-0.5-1.1
			S83.4,68,82.9,68C82.5,67.9,82.1,68,81.8,68.2z M84.7,71.7c0.2,0.8,0.7,1.6,1.3,2.4c0.4,0.5,0.9,0.9,1.5,1.3
			c-0.9,0.2-1.7,0.6-2.5,1.1l-0.1,0l-0.1-0.1c0.8-0.5,1.5-0.8,2.4-1.1c-1.1-0.8-2-1.9-2.7-3.6l0-0.1c1.2-0.4,1.8-1.1,1.8-2.1
			c0-0.4-0.2-0.8-0.5-1.2c0.4,0.4,0.6,0.8,0.6,1.4C86.4,70.5,85.8,71.2,84.7,71.7z"/>
		<path class="st4" d="M93.8,67.6l-0.1,0.1c-0.4,0.5-0.7,1.1-0.9,1.7c0-0.1-0.1-0.2-0.1-0.2c-0.2-0.5-0.4-0.8-0.7-0.9
			s-0.7-0.2-1.3-0.2c-0.3,0-0.6,0-1.1,0v2.7H90v-2.4c0.3,0,0.6,0,0.8,0c0.5,0,0.9,0.1,1.1,0.2s0.4,0.3,0.6,0.6
			c-0.1,0-0.1-0.1-0.1-0.1c-0.3-0.2-0.5-0.4-0.7-0.4s-0.4-0.1-0.8-0.1c-0.1,0-0.3,0-0.7,0l-0.1,0v2.2h1.1l0.8-1v2.5l-0.8-1h-1.6v3.3
			H90v-3h1.3l0.2,0.2h-1.3v2.9c0.8,0,1.4-0.1,1.7-0.2s0.6-0.3,0.8-0.7l0.3-0.5c0,0,0-0.1,0.1-0.1c0.1,0.4,0.2,0.8,0.4,1
			s0.4,0.6,0.8,0.9h-6.6l0.9-0.7v-2.6c-0.3,0-0.6,0.1-0.9,0.3L87.4,72c0.2-0.2,0.6-0.3,1-0.3v-0.3c-0.1,0-0.1,0-0.1,0
			c-0.4,0-0.8,0.2-1.1,0.4c0.2-0.6,0.6-0.9,1.2-0.9v-2.5l-0.9-0.7L93.8,67.6L93.8,67.6z M94.8,75.1l-0.3,0.5h-6.4L88,75.5h6.4
			l0.2-0.4c-0.6-0.5-1-1.1-1.2-1.7l0.2,0.1C93.8,74,94.2,74.5,94.8,75.1L94.8,75.1z M92.3,70v2.6l-0.2-0.1v-2.6L92.3,70z M94.1,68
			L94.1,68c-0.5,0.7-0.8,1.2-1,1.7L93,69.6c0.3-0.6,0.6-1.2,1-1.7L94.1,68z"/>
	</g>
</g>
<g id="Layer_2_00000160161659027556944530000000255775509405114759_">
	<path class="st5" d="M25.8,64.8c0.9,0,1.8,0,2.6,0.1c0.1,0,0.2,0,0.2,0c0-0.2,0-0.4,0.1-0.7c0.4-1.8,1.7-3,2.4-3.4
		c3-2.1,6.6,2.3,11.1,0.9c3.6-1.2,5.2-5.6,5.8-7.2c0.7-1.9,1.4-4,0.5-5.8c-1.5-2.8-5.6-3-6.8-3c-2.5-0.1-4.2,0.7-4.6,0.9
		c-1,0.5-1.7,1.1-2.2,1.5c-2.8,2.5-4.9,4.3-6.5,7c-1.9,3.2-3,7-3.3,9.8C25.2,64.8,25.5,64.8,25.8,64.8z"/>
	<path class="st5" d="M58.4,49.8c-2.5,1.2-4.9,3.9-4.3,5.5s3.6,0.4,6.7,2.6c3.2,2.2,2.7,5.3,5.1,5.8c2,0.5,4.5-1,5.3-3
		c0.7-2-0.6-3.9-2.5-6.6c-1.6-2.3-3-4.4-5.7-4.9C60.8,48.7,59,49.5,58.4,49.8z"/>
</g>
</svg>
